# xmcd
#
# Track frame offsets:
#       150
#       23852
#       48813
#       84272
#       102079
#       138835
#       175017
#       231154
#       260901
#       304009
#
# Disc length: 4444 seconds
#
# Revision: 10
# Processed by: cddbd v1.5.1PL0 Copyright (c) Steve Scherf et al.
# Submitted via: MusiCat 1.1
#
DISCID=74115a0a
DTITLE=John Mayall and the Blues Breakers and Friends - 70th Birthday Concert (d
DTITLE=isc1)
DYEAR=2003
DGENRE=
TTITLE0=Grits Aint Groceries
TTITLE1=Jacksboro Highway
TTITLE2=Southside Story
TTITLE3=Kids Got the Blues
TTITLE4=Dirty Water
TTITLE5=Somebody's Acting Like a Child (with Mick Taylor)
TTITLE6=Blues for the Lost Days (with Mick Taylor)
TTITLE7=Walking on Sunset (with Micktaylor)
TTITLE8=Oh Pretty Woman (with Mick Taylor)
TTITLE9=No Big Hurry
EXTD=Eagle\nEDGCD246\nwith Eric Clapton, Mick Taylor and Chris Barber
EXTT0=
EXTT1=
EXTT2=
EXTT3=
EXTT4=
EXTT5=
EXTT6=
EXTT7=
EXTT8=
EXTT9=
PLAYORDER=
